<svg data-v-0dd9719b="" version="1.0" xmlns="http://www.w3.org/2000/svg" xmlns:xlink="http://www.w3.org/1999/xlink" width="100%" height="100%" viewBox="0 0 340.000000 250.000000" preserveAspectRatio="xMidYMid meet" color-interpolation-filters="sRGB" style="margin: auto;"> <rect data-v-0dd9719b="" x="0" y="0" width="100%" height="100%" fill="#fff" fill-opacity="1" class="background"></rect> <rect data-v-0dd9719b="" x="0" y="0" width="100%" height="100%" fill="url(#watermark)" fill-opacity="1" class="watermarklayer"></rect> <g data-v-0dd9719b="" fill="#0b56a6" class="icon-text-wrapper icon-svg-group iconsvg" transform="translate(61.464996337890625,97.04874801635742)"><g class="iconsvg-imagesvg" transform="translate(0,1.1633853912353516)"><g><rect fill="#0b56a6" fill-opacity="0" stroke-width="2" x="0" y="0" width="60" height="53.57573376432035" class="image-rect"></rect> <svg x="0" y="0" width="60" height="53.57573376432035" filtersec="colorsb7202721794" class="image-svg-svg primary" style="overflow: visible;"><svg xmlns="http://www.w3.org/2000/svg" viewBox="0 -0.011434555053710938 424.6799621582031 379.20831298828125"><path d="M212.33 145.28a44.31 44.31 0 1 1-44.29 44.33 44.32 44.32 0 0 1 44.29-44.33z" fill="#da251d" fill-rule="evenodd"></path><path d="M307.2 25.47l-.05-.05c-14-8.06-37.41 1.17-64 22.66-29.28 23.64-60.88 61.71-87.94 108.54l-.07.14c-27 46.79-44.1 93.16-49.95 130.28-5.32 33.74-1.6 58.65 12.38 66.73 14 8.07 37.4-1.18 64-22.67 29.25-23.64 60.89-61.71 87.93-108.54 27-46.84 44.17-93.23 50-130.42 5.32-33.7 1.66-58.58-12.28-66.67zm-78.27 4.88c32.56-26.34 63.78-37 86.55-26.17h.27l2.72 1.56c23 13.28 30.27 46.66 23.47 89.87-6.14 39.06-23.69 87.23-51.25 135.57v.07l-1.57 2.72c-28.43 49.23-62 89.53-93.35 114.85-34 27.51-66.57 37.9-89.56 24.64-23-13.27-30.25-46.66-23.42-89.87 6.26-39.82 24.36-89 52.8-138.31v-.05c28.42-49.26 62-89.52 93.34-114.88z" fill="#0b56a6" fill-rule="evenodd"></path><path d="M401.86 189.61c0-16.17-19.69-31.82-51.49-44.08-35.08-13.48-83.86-21.85-138-21.85s-102.95 8.37-138 21.85c-31.88 12.26-51.58 27.91-51.58 44.08s19.68 31.81 51.5 44c35.07 13.5 83.85 21.85 138 21.85s103-8.35 138-21.85c31.8-12.23 51.49-27.89 51.49-44zm-43.39-65.28c40.91 15.76 66.21 38.72 66.21 65.28s-25.3 49.5-66.21 65.24c-37.65 14.49-89.34 23.45-146.14 23.45s-108.48-9-146.12-23.45C25.3 239.11 0 216.12 0 189.61s25.3-49.52 66.21-65.28c37.64-14.47 89.33-23.45 146.12-23.45s108.46 8.98 146.14 23.45z" fill="#0b56a6" fill-rule="evenodd"></path><path d="M307.1 353.77c14-8.08 17.7-33 12.38-66.73-5.84-37.12-23-83.49-49.93-130.28l-.09-.14c-27.05-46.83-58.66-84.87-87.91-108.54-26.57-21.47-50-30.72-64-22.66l-.82.49c-13.32 8.52-16.79 33.14-11.56 66.23 5.85 37.19 23 83.58 50 130.42 27 46.83 58.68 84.9 88 108.54 26.54 21.49 50 30.74 63.92 22.67zm34.84-70.18c6.8 43.21-.46 76.6-23.42 89.87s-55.58 2.89-89.61-24.64c-31.32-25.32-64.92-65.62-93.36-114.85l-1.57-2.72v-.07c-27.53-48.34-45.09-96.47-51.19-135.57-6.83-43.19.47-76.57 23.44-89.85.38-.22.77-.42 1.16-.63l1.59-.93h.24c22.78-10.8 54-.17 86.58 26.17 31.32 25.32 65 65.62 93.38 114.86v.05c28.39 49.29 46.5 98.49 52.76 138.31z" fill="#0b56a6" fill-rule="evenodd"></path></svg></svg> <!----></g></g> <g transform="translate(67,0)"><g data-gra="path-name" fill-rule="" class="tp-name iconsvg-namesvg" transform="translate(0,0)"><g transform="scale(1)"><g><path d="M13.32-17.64Q9.81-17.64 8.19-19.51 6.57-21.38 6.57-23.98L6.57-23.98 6.57-27.04Q6.57-29.61 8.23-31.5 9.9-33.39 13.32-33.39L13.32-33.39 26.01-33.39Q29.43-33.39 31.09-31.5 32.76-29.61 32.76-27.04L32.76-27.04 32.76-23.98Q32.76-21.42 31.09-19.53 29.43-17.64 26.01-17.64L26.01-17.64 13.32-17.64ZM13.77-31.14Q11.03-31.14 9.92-29.86 8.82-28.57 8.82-26.82L8.82-26.82 8.82-26.64 30.51-26.64 30.51-26.82Q30.51-28.57 29.41-29.86 28.3-31.14 25.56-31.14L25.56-31.14 13.77-31.14ZM25.56-19.89Q28.3-19.89 29.41-21.17 30.51-22.45 30.51-24.21L30.51-24.21 30.51-24.39 8.82-24.39 8.82-24.21Q8.82-22.45 9.92-21.17 11.03-19.89 13.77-19.89L13.77-19.89 25.56-19.89ZM34.83-1.67Q35.28-1.67 35.57-1.33 35.87-0.99 35.87-0.58L35.87-0.58Q35.87-0.49 35.77-0.22L35.77-0.22Q35.14 1.4 33.57 2.18 31.99 2.97 29.07 2.97L29.07 2.97 26.77 2.97Q20.79 2.97 20.79-2.79L20.79-2.79 20.79-15.16Q20.79-15.71 21.15-16 21.51-16.29 21.91-16.29L21.91-16.29Q22.32-16.29 22.68-16 23.04-15.71 23.04-15.16L23.04-15.16 23.04-8.55Q29.79-11.38 33.93-13.54L33.93-13.54Q34.2-13.68 34.47-13.68L34.47-13.68Q34.78-13.68 35.08-13.5 35.37-13.32 35.5-13.09L35.5-13.09Q35.59-12.82 35.59-12.6L35.59-12.6Q35.59-11.88 34.96-11.56L34.96-11.56Q30.46-9.13 23.04-6.17L23.04-6.17 23.04-4.14Q23.04-2.29 23.33-1.3 23.63-0.32 24.64 0.2 25.65 0.72 27.77 0.72L27.77 0.72Q30.73 0.72 32.04 0.29 33.34-0.14 33.7-0.81L33.7-0.81Q34.2-1.67 34.83-1.67L34.83-1.67ZM17.91-8.55L8.78-8.55 8.78 0.27 17.46-2.52Q17.95-2.7 18.36-2.41 18.77-2.11 18.86-1.71L18.86-1.71Q18.95-1.3 18.74-0.9 18.54-0.49 18-0.32L18-0.32 6.97 3.24Q6.39 3.42 5.96 3.01 5.54 2.61 5.54 2.16L5.54 2.16Q5.54 1.8 5.76 1.48 5.98 1.17 6.43 1.03L6.43 1.03 6.52 0.99 6.52-14.8Q6.52-15.34 6.88-15.64 7.25-15.93 7.65-15.93L7.65-15.93Q8.05-15.93 8.41-15.64 8.78-15.34 8.78-14.8L8.78-14.8 8.78-10.8 17.91-10.8Q18.45-10.8 18.74-10.44 19.04-10.08 19.04-9.67L19.04-9.67Q19.04-9.27 18.74-8.91 18.45-8.55 17.91-8.55L17.91-8.55ZM67.36-33.03Q70.88-33.03 72.5-31.16 74.12-29.29 74.12-26.68L74.12-26.68 74.12-2.21Q74.12 0.4 73.17 1.6 72.22 2.79 69.84 3.24L69.84 3.24Q69.21 3.33 68.78 3.01 68.36 2.7 68.36 2.07L68.36 2.07Q68.36 1.21 69.39 0.99L69.39 0.99Q70.47 0.81 70.97 0.4 71.46 0 71.66-0.92 71.87-1.84 71.87-3.69L71.87-3.69 71.87-9.31 61.52-9.31Q60.88-5.17 59.33-2.18 57.78 0.81 54.99 3.82L54.99 3.82Q54.49 4.32 54.05 4.32L54.05 4.32Q53.73 4.32 53.37 4.09L53.37 4.09Q52.88 3.78 52.88 3.15L52.88 3.15Q52.88 2.75 53.19 2.43L53.19 2.43Q55.53-0.09 56.9-2.34 58.27-4.59 58.97-7.79 59.67-10.98 59.67-15.84L59.67-15.84 59.67-26.68Q59.67-29.29 61.29-31.16 62.91-33.03 66.42-33.03L66.42-33.03 67.36-33.03ZM55.13-8.37Q55.13-5.94 53.77-4.21 52.42-2.48 49.91-2.48L49.91-2.48 48.91-2.48Q46.39-2.48 45.05-4.21 43.7-5.94 43.7-8.37L43.7-8.37 43.7-26.23Q43.7-28.66 45.05-30.4 46.39-32.13 48.91-32.13L48.91-32.13 49.91-32.13Q52.42-32.13 53.77-30.4 55.13-28.66 55.13-26.23L55.13-26.23 55.13-8.37ZM66.87-30.78Q64.13-30.78 63.02-29.5 61.92-28.21 61.92-26.46L61.92-26.46 61.92-22.05 71.87-22.05 71.87-26.46Q71.87-28.21 70.76-29.5 69.66-30.78 66.91-30.78L66.91-30.78 66.87-30.78ZM49.37-29.88Q47.61-29.88 46.78-28.73 45.95-27.58 45.95-26.01L45.95-26.01 45.95-18.45 52.88-18.45 52.88-26.01Q52.88-27.58 52.04-28.73 51.21-29.88 49.45-29.88L49.45-29.88 49.37-29.88ZM61.74-11.56L71.87-11.56 71.87-19.8 61.92-19.8 61.92-15.84Q61.92-13.32 61.74-11.56L61.74-11.56ZM49.45-4.72Q51.21-4.72 52.04-5.87 52.88-7.02 52.88-8.59L52.88-8.59 52.88-16.2 45.95-16.2 45.95-8.59Q45.95-7.02 46.78-5.87 47.61-4.72 49.37-4.72L49.37-4.72 49.45-4.72ZM83.52-22.05Q83.11-22.05 82.75-22.34 82.39-22.63 82.39-23.18L82.39-23.18 82.39-24.07Q82.39-26.37 84.15-27.81 85.91-29.25 89.14-29.25L89.14-29.25 96.53-29.25 96.53-35.23Q96.53-35.77 96.88-36.07 97.25-36.36 97.65-36.36L97.65-36.36Q98.06-36.36 98.41-36.07 98.78-35.77 98.78-35.23L98.78-35.23 98.78-33.7 111.47-33.7Q112-33.7 112.3-33.34 112.59-32.98 112.59-32.58L112.59-32.58Q112.59-32.17 112.3-31.81 112-31.45 111.47-31.45L111.47-31.45 98.78-31.45 98.78-29.25 107.64-29.25Q110.88-29.25 112.63-27.81 114.39-26.37 114.39-24.07L114.39-24.07 114.39-23.18Q114.39-22.63 114.03-22.34 113.67-22.05 113.27-22.05L113.27-22.05Q112.86-22.05 112.5-22.36 112.14-22.68 112.14-23.18L112.14-23.18 112.14-23.63Q112.14-25.11 110.92-26.05 109.71-27 107.19-27L107.19-27 89.59-27Q87.08-27 85.86-26.05 84.64-25.11 84.64-23.63L84.64-23.63 84.64-23.18Q84.64-22.68 84.28-22.36 83.92-22.05 83.52-22.05L83.52-22.05ZM108.36-23.27Q108.36-22.86 108.07-22.5 107.78-22.14 107.23-22.14L107.23-22.14 89.64-22.14Q89.1-22.14 88.81-22.5 88.52-22.86 88.52-23.27L88.52-23.27Q88.52-23.67 88.81-24.03 89.1-24.39 89.64-24.39L89.64-24.39 107.23-24.39Q107.78-24.39 108.07-24.03 108.36-23.67 108.36-23.27L108.36-23.27ZM83.61-15.62Q83.43-15.52 83.16-15.52L83.16-15.52Q82.48-15.52 82.13-16.2L82.13-16.2Q82.03-16.47 82.03-16.65L82.03-16.65Q82.03-17.37 82.71-17.68L82.71-17.68Q86.44-19.39 89.46-21.42L89.46-21.42Q89.69-21.6 90-21.6L90-21.6Q90.58-21.6 90.99-21.02L90.99-21.02Q91.17-20.65 91.17-20.43L91.17-20.43Q91.17-19.8 90.63-19.44L90.63-19.44Q86.85-17.05 83.61-15.62L83.61-15.62ZM106.25-19.3Q105.61-19.62 105.61-20.34L105.61-20.34Q105.61-20.65 105.75-20.84L105.75-20.84Q106.11-21.46 106.74-21.46L106.74-21.46Q107.01-21.46 107.28-21.33L107.28-21.33 113.98-17.77Q114.57-17.46 114.57-16.83L114.57-16.83Q114.57-16.7 114.5-16.52 114.44-16.34 114.44-16.25L114.44-16.25Q114.34-15.97 114.07-15.79 113.81-15.62 113.49-15.62L113.49-15.62Q113.22-15.62 112.95-15.75L112.95-15.75 106.25-19.3ZM115.65-10.44Q116.19-10.17 116.19-9.54L116.19-9.54Q116.19-9.18 116.06-8.91L116.06-8.91Q115.74-8.28 115.02-8.28L115.02-8.28Q114.75-8.28 114.57-8.37L114.57-8.37Q111.1-9.86 108.22-11.52L108.22-11.52Q109.8-9.81 109.8-7.15L109.8-7.15 109.8-2.48Q109.8 0.09 108.13 1.98 106.47 3.87 103.05 3.87L103.05 3.87 93.87 3.87Q90.45 3.87 88.78 1.98 87.12 0.09 87.12-2.48L87.12-2.48 87.12-7.15Q87.12-8.46 87.57-9.67 88.02-10.89 88.97-11.79L88.97-11.79Q85.55-9.86 82.31-8.5L82.31-8.5Q82.03-8.37 81.77-8.37L81.77-8.37Q81.09-8.37 80.73-9.04L80.73-9.04Q80.59-9.31 80.59-9.58L80.59-9.58Q80.59-10.35 81.36-10.66L81.36-10.66Q85.23-12.2 88.88-14.35 92.52-16.52 95.44-19.08L95.44-19.08Q96.34-19.93 97.02-20.32 97.69-20.7 98.33-20.7L98.33-20.7Q98.91-20.7 99.54-20.34 100.17-19.98 101.07-19.21L101.07-19.21Q106.92-14.22 115.65-10.44L115.65-10.44ZM103.05-13.5Q104.22-13.5 105.48-13.18L105.48-13.18Q102.6-15.03 99.99-17.28L99.99-17.28Q99.41-17.82 99.07-18.02 98.73-18.22 98.46-18.22L98.46-18.22Q98.19-18.22 97.81-17.95 97.42-17.68 96.93-17.28L96.93-17.28Q94.28-15.03 91.17-13.09L91.17-13.09Q92.34-13.5 93.87-13.5L93.87-13.5 103.05-13.5ZM89.59-8.41L107.33-8.41Q106.47-11.25 102.6-11.25L102.6-11.25 94.32-11.25Q90.45-11.25 89.59-8.41L89.59-8.41ZM89.37-3.33L107.55-3.33 107.55-6.17 89.37-6.17 89.37-3.33ZM102.6 1.62Q106.33 1.62 107.28-1.08L107.28-1.08 89.64-1.08Q90.58 1.62 94.32 1.62L94.32 1.62 102.6 1.62ZM155.12-9.86Q155.61-9.49 155.61-8.87L155.61-8.87Q155.61-8.55 155.47-8.32L155.47-8.32Q155.16-7.74 154.53-7.74L154.53-7.74Q154.26-7.74 153.9-8.01L153.9-8.01Q150.97-10.39 149.15-12.55 147.33-14.71 145.98-17.73L145.98-17.73 141.57-17.73Q139.19-12.82 134.32-8.82L134.32-8.82Q133.97-8.5 133.56-8.5L133.56-8.5Q133.11-8.5 132.71-8.91L132.71-8.91Q132.39-9.31 132.39-9.72L132.39-9.72Q132.39-10.21 132.79-10.53L132.79-10.53Q136.75-13.9 138.87-17.73L138.87-17.73 135.31-17.73Q134.78-17.73 134.48-18.09 134.19-18.45 134.19-18.86L134.19-18.86Q134.19-19.26 134.48-19.62 134.78-19.98 135.31-19.98L135.31-19.98 139.95-19.98Q140.67-21.6 141.07-23.4L141.07-23.4 135.68-23.4Q135.13-23.4 134.84-23.76 134.55-24.12 134.55-24.52L134.55-24.52Q134.55-24.93 134.84-25.29 135.13-25.65 135.68-25.65L135.68-25.65 141.57-25.65Q141.93-27.45 142.11-29.2L142.11-29.2 135.76-29.2Q135.22-29.2 134.93-29.56 134.64-29.92 134.64-30.33L134.64-30.33Q134.64-30.73 134.93-31.09 135.22-31.45 135.76-31.45L135.76-31.45 142.38-31.45Q142.56-33.62 142.69-34.74L142.69-34.74Q142.74-35.28 143.12-35.55 143.5-35.82 143.91-35.82L143.91-35.82Q144.36-35.77 144.7-35.46 145.03-35.14 144.99-34.6L144.99-34.6Q144.81-32.58 144.68-31.45L144.68-31.45 153.18-31.45Q153.72-31.45 154.01-31.09 154.31-30.73 154.31-30.33L154.31-30.33Q154.31-29.92 154.01-29.56 153.72-29.2 153.18-29.2L153.18-29.2 144.45-29.2Q144.18-26.86 143.95-25.65L143.95-25.65 152.14-25.65Q152.69-25.65 152.98-25.29 153.27-24.93 153.27-24.52L153.27-24.52Q153.27-24.12 152.98-23.76 152.69-23.4 152.14-23.4L152.14-23.4 143.5-23.4Q143.06-21.55 142.51-19.98L142.51-19.98 153.85-19.98Q154.39-19.98 154.69-19.62 154.98-19.26 154.98-18.86L154.98-18.86Q154.98-18.45 154.69-18.09 154.39-17.73 153.85-17.73L153.85-17.73 148.45-17.73Q149.67-15.16 151.04-13.61 152.41-12.06 155.12-9.86L155.12-9.86ZM120.92-17.95Q120.38-17.91 120.06-18.27 119.75-18.63 119.75-19.08L119.75-19.08Q119.75-19.48 120.02-19.8 120.28-20.11 120.78-20.16L120.78-20.16 120.83-20.16Q122.63-24.16 124.83-29.74L124.83-29.74 121.23-29.74Q120.69-29.74 120.4-30.11 120.11-30.46 120.11-30.87L120.11-30.87Q120.11-31.27 120.4-31.63 120.69-31.99 121.23-31.99L121.23-31.99 132.3-31.99Q132.84-31.99 133.13-31.63 133.43-31.27 133.43-30.87L133.43-30.87Q133.43-30.46 133.13-30.11 132.84-29.74 132.3-29.74L132.3-29.74 127.26-29.74Q125.73-25.61 123.39-20.34L123.39-20.34 130-20.84 128.34-24.84Q128.25-25.02 128.25-25.33L128.25-25.33Q128.25-25.7 128.45-25.96 128.66-26.23 128.93-26.32L128.93-26.32Q129.19-26.41 129.38-26.41L129.38-26.41Q130.09-26.41 130.41-25.74L130.41-25.74 133.38-18.68Q133.47-18.5 133.47-18.22L133.47-18.22Q133.47-17.86 133.25-17.57 133.02-17.28 132.75-17.19L132.75-17.19Q132.48-17.1 132.3-17.1L132.3-17.1Q131.58-17.1 131.26-17.77L131.26-17.77 130.91-18.68 120.92-17.95ZM132.84-1.53Q132.88-1.08 132.66-0.7 132.44-0.32 131.9-0.27L131.9-0.27 121.09 1.48Q120.6 1.57 120.26 1.28 119.92 0.99 119.79 0.58L119.79 0.58Q119.7 0.18 119.95-0.22 120.19-0.63 120.73-0.72L120.73-0.72 125.64-1.53 125.64-9.13 121.91-9.13Q121.36-9.13 121.07-9.49 120.78-9.86 120.78-10.26L120.78-10.26Q120.78-10.66 121.07-11.03 121.36-11.38 121.91-11.38L121.91-11.38 125.64-11.38 125.64-15.93Q125.64-16.47 126-16.76 126.36-17.05 126.77-17.05L126.77-17.05Q127.17-17.05 127.53-16.76 127.89-16.47 127.89-15.93L127.89-15.93 127.89-11.38 130.81-11.38Q131.35-11.38 131.65-11.03 131.94-10.66 131.94-10.26L131.94-10.26Q131.94-9.86 131.65-9.49 131.35-9.13 130.81-9.13L130.81-9.13 127.89-9.13 127.89-1.89 131.53-2.48Q132.07-2.56 132.41-2.27 132.75-1.98 132.84-1.53L132.84-1.53ZM151.88-5.71L144.81-5.71 144.81 3.46Q144.81 4 144.45 4.3 144.09 4.59 143.69 4.59L143.69 4.59Q143.28 4.59 142.92 4.3 142.56 4 142.56 3.46L142.56 3.46 142.56-3.15Q138.82 0.32 134.28 2.83L134.28 2.83Q133.97 3.01 133.65 3.01L133.65 3.01Q133.34 3.01 133.09 2.83 132.84 2.65 132.75 2.43L132.75 2.43Q132.62 2.25 132.62 1.89L132.62 1.89Q132.62 1.26 133.16 0.94L133.16 0.94Q138.33-1.98 141.97-5.71L141.97-5.71 135.63-5.71Q135.09-5.71 134.8-6.08 134.5-6.43 134.5-6.84L134.5-6.84Q134.5-7.25 134.8-7.6 135.09-7.96 135.63-7.96L135.63-7.96 142.56-7.96 142.56-10.89 139.81-10.57Q139.28-10.53 138.94-10.87 138.6-11.21 138.6-11.61L138.6-11.61Q138.6-12.06 138.85-12.42 139.09-12.78 139.63-12.82L139.63-12.82Q143.01-13.14 146.88-13.95L146.88-13.95Q147.47-14.04 147.82-13.66 148.19-13.28 148.19-12.82L148.19-12.82Q148.19-11.92 147.28-11.74L147.28-11.74Q145.4-11.34 144.81-11.25L144.81-11.25 144.81-7.96 151.88-7.96Q152.41-7.96 152.71-7.6 153-7.25 153-6.84L153-6.84Q153-6.43 152.71-6.08 152.41-5.71 151.88-5.71L151.88-5.71ZM154.22 0.67Q154.8 1.08 154.8 1.67L154.8 1.67Q154.8 1.98 154.62 2.25L154.62 2.25Q154.22 2.83 153.63 2.83L153.63 2.83Q153.27 2.83 153.05 2.65L153.05 2.65 145.62-1.71Q145.08-2.02 145.08-2.65L145.08-2.65Q145.08-2.92 145.26-3.28L145.26-3.28Q145.4-3.51 145.69-3.67 145.98-3.82 146.25-3.82L146.25-3.82Q146.52-3.82 146.79-3.69L146.79-3.69 154.22 0.67Z" transform="translate(-5.539999961853027, 36.36000061035156)"></path></g> <!----> <!----> <!----> <!----> <!----> <!----> <!----></g></g> <g data-gra="path-slogan" fill-rule="" class="tp-slogan iconsvg-slogansvg" fill="#0b56a6" transform="translate(5,46.95000076293945)"><rect x="0" height="1" y="3.9750003814697266" width="11.510002136230469"></rect> <rect height="1" y="3.9750003814697266" width="11.510002136230469" x="128.56000518798828"></rect> <g transform="translate(14.510002136230469,0)"><g transform="scale(1)"><path d="M3.42-4.31L2.06-3.05L2.06 0L0.89 0L0.89-8.58L2.06-8.58L2.06-4.41L6.23-8.58L7.88-8.58L4.27-5.11L7.97 0L6.42 0L3.42-4.31ZM14.53-3.19L14.53-8.58L15.70-8.58L15.70-3.05Q15.56 0.05 12.19 0.14L12.19 0.14Q9.05 0.05 8.91-2.86L8.91-2.86L8.91-8.58L10.08-8.58L10.08-3.19Q10.13-0.84 12.23-0.80L12.23-0.80Q14.53-0.84 14.53-3.19L14.53-3.19ZM18.89-8.58L23.20-1.64L23.20-8.58L24.33-8.58L24.33 0L23.02 0L18.66-6.94L18.61-6.94L18.61 0L17.48 0L17.48-8.58L18.89-8.58ZM34.36-8.58L34.36 0L33.23 0L33.23-5.06Q33.23-5.77 33.23-7.22L33.23-7.22L30.80 0L29.63 0L27.23-7.22L27.19-7.22Q27.19-6.70 27.23-5.67L27.23-5.67Q27.23-5.16 27.23-5.06L27.23-5.06L27.23 0L26.06 0L26.06-8.58L27.75-8.58L30.23-1.31L32.67-8.58L34.36-8.58ZM36.23-8.58L37.41-8.58L37.41 0L36.23 0L36.23-8.58ZM40.78-8.58L45.09-1.64L45.09-8.58L46.22-8.58L46.22 0L44.91 0L40.55-6.94L40.50-6.94L40.50 0L39.38 0L39.38-8.58L40.78-8.58ZM54.42-3.61L51.80-3.61L51.80-4.59L55.55-4.59L55.55 0L54.80 0L54.52-1.08Q53.53 0.09 51.70 0.14L51.70 0.14Q49.97 0.14 49.03-0.75L49.03-0.75Q47.63-2.06 47.67-4.36L47.67-4.36Q48-8.63 51.75-8.81L51.75-8.81Q54.94-8.63 55.41-6L55.41-6L54.28-6Q53.81-7.78 51.70-7.83L51.70-7.83Q49.03-7.64 48.89-4.31L48.89-4.31Q48.89-0.75 51.75-0.75L51.75-0.75Q52.78-0.75 53.53-1.31L53.53-1.31Q54.47-2.06 54.42-3.61L54.42-3.61ZM64.78-3.70L61.97-3.70L61.97 0L60.80 0L60.80-8.58L64.78-8.58Q67.64-8.58 67.64-6.28L67.64-6.28Q67.64-4.88 66.42-4.22L66.42-4.22Q67.45-3.94 67.45-2.58L67.45-2.58L67.55-1.03Q67.50-0.38 67.97-0.19L67.97-0.19L67.97 0L66.52 0Q66.38-0.61 66.33-2.16L66.33-2.16Q66.38-3.70 64.78-3.70L64.78-3.70ZM64.88-7.64L61.97-7.64L61.97-4.69L64.69-4.69Q66.42-4.69 66.42-6.19L66.42-6.19Q66.42-7.64 64.88-7.64L64.88-7.64ZM74.95-3.19L74.95-8.58L76.13-8.58L76.13-3.05Q75.98 0.05 72.61 0.14L72.61 0.14Q69.47 0.05 69.33-2.86L69.33-2.86L69.33-8.58L70.50-8.58L70.50-3.19Q70.55-0.84 72.66-0.80L72.66-0.80Q74.95-0.84 74.95-3.19L74.95-3.19ZM78.09-8.58L79.27-8.58L79.27 0L78.09 0L78.09-8.58ZM82.08-1.03L87.38-1.03L87.38 0L80.63 0L80.63-0.94L85.88-7.59L81-7.59L81-8.58L87.38-8.58L87.38-7.59L82.08-1.03ZM89.67-5.06L94.17-5.06L94.17-8.58L95.34-8.58L95.34 0L94.17 0L94.17-3.98L89.67-3.98L89.67 0L88.50 0L88.50-8.58L89.67-8.58L89.67-5.06ZM98.44-1.03L103.59-1.03L103.59 0L97.27 0L97.27-8.58L103.50-8.58L103.50-7.59L98.44-7.59L98.44-4.92L103.13-4.92L103.13-3.89L98.44-3.89L98.44-1.03ZM106.50-8.58L110.81-1.64L110.81-8.58L111.94-8.58L111.94 0L110.63 0L106.27-6.94L106.22-6.94L106.22 0L105.09 0L105.09-8.58L106.50-8.58Z" transform="translate(-0.890625, 8.8125)"></path></g></g></g></g></g><defs v-gra="od"></defs></svg>